<?xml version="1.0" encoding="UTF-8"?>
<svg version="1.1" xmlns="http://www.w3.org/2000/svg" width="512" height="512">
<path d="M0 0 C168.96 0 337.92 0 512 0 C512 168.96 512 337.92 512 512 C343.04 512 174.08 512 0 512 C0 343.04 0 174.08 0 0 Z " fill="#FEFEFE" transform="translate(0,0)"/>
<path d="M0 0 C31.77053628 -0.87889803 58.38743732 7.88732787 82 30 C82.33 30.99 82.66 31.98 83 33 C84.32222671 33.68843209 85.65686601 34.35330586 87 35 C92.988417 41.12003056 96.97476858 49.51634309 101 57 C101.34160156 57.62704834 101.68320312 58.25409668 102.03515625 58.90014648 C109.1338327 72.41609342 110.4759175 87.15441986 110.4375 102.1875 C110.43524414 103.49920166 110.43298828 104.81090332 110.43066406 106.16235352 C110.31866347 113.34094907 109.71339139 120.0295167 108 127 C107.81179688 127.93070312 107.62359375 128.86140625 107.4296875 129.8203125 C101.39783266 154.88224459 82.37803386 172.76334743 64.83251953 190.36035156 C63.31194134 191.88884655 61.79154014 193.41751763 60.27130127 194.9463501 C55.31218461 199.93147915 50.34780121 204.91134526 45.3828125 209.890625 C43.66654779 211.61225577 41.95028882 213.33389226 40.23403549 215.05553436 C33.09525856 222.21589911 25.95505702 229.37483822 18.81112862 236.53006363 C8.60311452 246.7543338 -1.59629999 256.98701404 -11.7839669 267.23155999 C-18.96783896 274.45416228 -26.16129848 281.66712643 -33.36191857 288.87303138 C-37.65468085 293.16943941 -41.94319331 297.46989412 -46.22149277 301.78070831 C-50.24401904 305.8333732 -54.27833552 309.87392231 -58.32183075 313.90566254 C-59.79871233 315.38232396 -61.27136308 316.86323163 -62.73929977 318.3487854 C-74.10683305 329.84522267 -84.59523054 339.04006351 -101.54516602 339.38037109 C-121.08223776 339.33408967 -132.17194015 330.28836736 -145.49291992 316.91113281 C-146.72526692 315.68449738 -147.95824045 314.45849113 -149.19178772 313.23306274 C-152.52097135 309.92173763 -155.84061858 306.60100878 -159.15802169 303.27788639 C-161.93593731 300.49686863 -164.71844847 297.72047151 -167.50092679 294.94402003 C-174.06824627 288.3907199 -180.62776644 281.82968561 -187.18237305 275.26367188 C-193.92864162 268.50592179 -200.68759299 261.76105309 -207.4529869 255.0224545 C-213.2770605 249.22057994 -219.09329647 243.4109299 -224.9033497 237.59501529 C-228.36654225 234.1284624 -231.83252362 230.66482563 -235.30602074 227.20859528 C-238.57285337 223.95729695 -241.82972598 220.69633159 -245.07941246 217.42789841 C-246.26832302 216.23532007 -247.46059697 215.0460831 -248.65658951 213.86060715 C-260.33508443 202.27693603 -268.20039086 191.40032696 -268.375 174.5 C-268.22975795 161.76987971 -264.38425916 152.01507182 -255.70703125 142.48046875 C-244.75380049 131.97999475 -233.66069334 129.50991064 -219.04296875 129.72265625 C-198.35681447 130.4896581 -183.61277643 149.19201184 -170.11033249 162.93676376 C-167.5653592 165.52472663 -165.01023262 168.10257484 -162.45586586 170.68126106 C-157.72986983 175.45255976 -153.00819172 180.22796834 -148.30273438 185.01953125 C-144.99953532 188.38239169 -141.6840171 191.7326728 -138.36024857 195.07519913 C-137.10788332 196.33922041 -135.86003842 197.60773869 -134.61707687 198.88100815 C-126.247986 207.44924842 -117.80869745 215.95687922 -105.0625 216.3125 C-85.79716868 216.00750795 -74.76589325 200.91307869 -62.28271484 188.18676758 C-60.63026673 186.50433077 -58.9718199 184.82799939 -57.3125 183.15234375 C-56.80734863 182.63373276 -56.30219727 182.11512177 -55.78173828 181.58079529 C-54.5586147 180.34884301 -53.2835544 179.16885662 -52 178 C-51.34 178 -50.68 178 -50 178 C-49.73812393 177.4006514 -49.47624786 176.8013028 -49.20643616 176.18379211 C-47.91949404 173.8542747 -46.75272192 172.72421965 -44.69702148 171.05932617 C-38.41547216 165.73523065 -32.67537822 159.86045485 -26.84765625 154.05078125 C-26.22633757 153.43228994 -25.60501888 152.81379864 -24.96487236 152.17656517 C-21.6774143 148.90401721 -18.39278138 145.62866566 -15.1105957 142.35083008 C-11.75109908 138.99680974 -8.38242524 135.65217025 -5.01146793 132.30967426 C-2.39212895 129.70911263 0.22032883 127.10171742 2.83105659 124.49251366 C4.06870479 123.25785793 5.30881187 122.02566123 6.55158806 120.79616737 C22.39815198 105.10696182 35.78880388 88.20116982 36.30053711 64.89550781 C36.39300928 45.41218767 30.8706433 28.05694516 17.1875 13.6875 C12.01847735 8.71637256 6.38483667 5.19241833 0 2 C0 1.34 0 0.68 0 0 Z " fill="#6494EB" transform="translate(360,86)"/>
<path d="M0 0 C1.02996094 0.01675781 2.05992187 0.03351563 3.12109375 0.05078125 C23.78716507 1.15171351 46.15024582 12.56829986 60.98828125 26.38671875 C61.5460022 26.90382416 62.10372314 27.42092957 62.67834473 27.95370483 C69.93641488 34.73871383 76.86682474 41.85963399 83.80126953 48.97265625 C85.54830008 50.76194984 87.30460586 52.54169978 89.0625 54.3203125 C89.58650391 54.86293732 90.11050781 55.40556213 90.65039062 55.96463013 C95.25117488 60.5973126 98.95844071 62.28492953 105.4375 62.3125 C106.34371094 62.32925781 107.24992188 62.34601563 108.18359375 62.36328125 C115.52236974 61.41667076 119.80027114 56.55249398 124.671875 51.48046875 C126.15614091 49.9679919 127.6405195 48.45562561 129.125 46.94335938 C131.4362546 44.57016119 133.74402274 42.19367088 136.04882812 39.81420898 C138.28938772 37.50669179 140.54250868 35.21198764 142.796875 32.91796875 C143.47014832 32.21463913 144.14342163 31.51130951 144.83709717 30.78666687 C154.59571924 20.88053628 164.08389818 17.11150638 177.8125 16.625 C187.35441585 16.76027253 195.59777155 19.63634266 204 24 C204 24.66 204 25.32 204 26 C204.8353125 26.37125 204.8353125 26.37125 205.6875 26.75 C214.68216937 31.61198344 219.38030439 40.07142803 222.3125 49.61328125 C224.12298976 58.53200069 224.02167897 68.38821494 221 77 C220.76667969 77.69996094 220.53335937 78.39992188 220.29296875 79.12109375 C215.17638608 92.60177047 200.8910438 103.1981009 190.875 113.125 C187.84857452 116.12461471 184.82563286 119.12767986 181.8046875 122.1328125 C181.12534149 122.80386017 180.44599548 123.47490784 179.74606323 124.16629028 C176.61030179 127.28614375 173.57777314 130.43878638 170.69580078 133.79541016 C166.07057466 139.15325843 161.05521357 144.12921541 156.0625 149.140625 C155.29089035 149.91647572 155.29089035 149.91647572 154.50369263 150.70800018 C151.78801812 153.43854857 149.06957313 156.16630073 146.34863281 158.89160156 C143.55462825 161.69111296 140.77004481 164.49980482 137.98750305 167.31070328 C135.82888137 169.48800701 133.66352387 171.65851712 131.49630737 173.82726288 C130.46685722 174.85972103 129.43988591 175.89465745 128.41555786 176.93219757 C116.23227445 189.26151649 116.23227445 189.26151649 108.75390625 190.56640625 C107.17416016 190.56447266 107.17416016 190.56447266 105.5625 190.5625 C104.51191406 190.58441406 103.46132812 190.60632813 102.37890625 190.62890625 C95.06067208 189.26678405 89.65584131 184.09443973 84.62255859 178.88378906 C84.0391571 178.29279419 83.45575562 177.70179932 82.85467529 177.09289551 C81.59974679 175.81998312 80.34825202 174.54367785 79.09992599 173.26428986 C77.11235622 171.22867148 75.11431543 169.20386831 73.1131897 167.18157959 C67.42905128 161.43367959 61.76339867 155.66772483 56.10595703 149.89355469 C52.63223823 146.34965087 49.14586959 142.81857731 45.65205765 139.294487 C44.33567495 137.96152035 43.0241034 136.62378191 41.71784592 135.28089142 C31.68452023 124.9675615 21.11902209 115.21093641 7 111 C5.205625 110.443125 5.205625 110.443125 3.375 109.875 C-14.89762592 105.13765254 -33.83861361 107.9301716 -50.015625 117.42578125 C-65.65622118 127.21422504 -75.65774236 141.88986014 -79.8984375 159.79296875 C-80.64092306 163.18864811 -81.34231437 166.58701017 -82 170 C-86.22879268 166.96760952 -89.05689349 163.50075773 -91.875 159.1875 C-92.30627197 158.53168945 -92.73754395 157.87587891 -93.18188477 157.20019531 C-99.60082651 147.19795058 -104.48018244 136.65859251 -107 125 C-107.20367187 124.22527344 -107.40734375 123.45054687 -107.6171875 122.65234375 C-113.37828741 97.75334347 -107.76213242 69.44117404 -94.5 47.875 C-93.36320612 46.22896361 -92.19688325 44.60287448 -91 43 C-90.06027344 41.7315625 -90.06027344 41.7315625 -89.1015625 40.4375 C-72.29835008 18.65309813 -49.54937079 5.24048693 -22.55078125 0.37890625 C-15.06444436 -0.41996578 -7.51801508 -0.14166067 0 0 Z " fill="#5870D0" transform="translate(151,86)"/>
<path d="M0 0 C4.07117494 1.35705831 4.99541087 3.98535679 6.9375 7.5625 C7.27201172 8.15869141 7.60652344 8.75488281 7.95117188 9.36914062 C8.98917237 11.23514152 9.99793556 13.11447989 11 15 C11.34595215 15.63719971 11.6919043 16.27439941 12.04833984 16.9309082 C19.14228056 30.43352233 20.47587966 45.16922815 20.4375 60.1875 C20.43524414 61.49920166 20.43298828 62.81090332 20.43066406 64.16235352 C20.31866347 71.34094907 19.71339139 78.0295167 18 85 C17.81179688 85.93070312 17.62359375 86.86140625 17.4296875 87.8203125 C11.39783266 112.88224459 -7.62196614 130.76334743 -25.16748047 148.36035156 C-26.68805866 149.88884655 -28.20845986 151.41751763 -29.72869873 152.9463501 C-34.68781539 157.93147915 -39.65219879 162.91134526 -44.6171875 167.890625 C-46.33345221 169.61225577 -48.04971118 171.33389226 -49.76596451 173.05553436 C-56.90474144 180.21589911 -64.04494298 187.37483822 -71.18887138 194.53006363 C-81.39688548 204.7543338 -91.59629999 214.98701404 -101.7839669 225.23155999 C-108.96783896 232.45416228 -116.16129848 239.66712643 -123.36191857 246.87303138 C-127.65468085 251.16943941 -131.94319331 255.46989412 -136.22149277 259.78070831 C-140.24401904 263.8333732 -144.27833552 267.87392231 -148.32183075 271.90566254 C-149.79871233 273.38232396 -151.27136308 274.86323163 -152.73929977 276.3487854 C-164.10683305 287.84522267 -174.59523054 297.04006351 -191.54516602 297.38037109 C-211.08223776 297.33408967 -222.17194015 288.28836736 -235.49291992 274.91113281 C-236.72526692 273.68449738 -237.95824045 272.45849113 -239.19178772 271.23306274 C-242.52097135 267.92173763 -245.84061858 264.60100878 -249.15802169 261.27788639 C-251.93593731 258.49686863 -254.71844847 255.72047151 -257.50092679 252.94402003 C-264.06824627 246.3907199 -270.62776644 239.82968561 -277.18237305 233.26367188 C-283.92864162 226.50592179 -290.68759299 219.76105309 -297.4529869 213.0224545 C-303.2770605 207.22057994 -309.09329647 201.4109299 -314.9033497 195.59501529 C-318.36654225 192.1284624 -321.83252362 188.66482563 -325.30602074 185.20859528 C-328.57285337 181.95729695 -331.82972598 178.69633159 -335.07941246 175.42789841 C-336.26832302 174.23532007 -337.46059697 173.0460831 -338.65658951 171.86060715 C-350.33508443 160.27693603 -358.20039086 149.40032696 -358.375 132.5 C-358.22975795 119.76987971 -354.38425916 110.01507182 -345.70703125 100.48046875 C-340.27361507 95.27164529 -334.3352807 91.03887994 -327 89 C-324.6796875 89.3828125 -324.6796875 89.3828125 -323 90 C-323.639375 90.763125 -324.27875 91.52625 -324.9375 92.3125 C-328.6898636 97.20194348 -328.68059259 102.06101942 -328 108 C-324.54942699 120.76359916 -315.75549099 131.29325992 -306.85058594 140.73608398 C-306.25115551 141.37459258 -305.65172508 142.01310118 -305.0341301 142.67095852 C-296.7887399 151.40335884 -288.30327401 159.90179741 -279.828125 168.41015625 C-278.93774284 169.30461393 -278.04736069 170.19907162 -277.12999725 171.12063408 C-272.91213691 175.35705032 -268.692317 179.59149052 -264.4693892 183.8228541 C-259.63897539 188.66308804 -254.81701914 193.51155363 -250.0018208 198.36692339 C-245.78812916 202.61453243 -241.56340062 206.85099506 -237.33473969 211.08370781 C-235.5532864 212.87001046 -233.77519268 214.65967053 -232.0006485 216.45283699 C-229.52055661 218.95737243 -227.02802775 221.44887596 -224.53222656 223.93774414 C-223.81406265 224.66871811 -223.09589874 225.39969208 -222.35597229 226.15281677 C-214.12500315 234.3011797 -205.38943711 239.79741957 -193.625 240.3125 C-178.95173502 239.88316178 -170.42534048 230.72874057 -160.65625 220.81640625 C-159.67845733 219.83232351 -158.70013455 218.84876724 -157.72131348 217.8657074 C-155.16212096 215.29331319 -152.60857576 212.71539438 -150.05670166 210.13574219 C-145.97539539 206.01107054 -141.88725443 201.89320342 -137.79570007 197.77869987 C-136.38203645 196.35496545 -134.97203248 194.9276002 -133.56213379 193.50013733 C-132.2503717 192.17857887 -132.2503717 192.17857887 -130.91210938 190.83032227 C-130.15458374 190.06454361 -129.39705811 189.29876495 -128.61657715 188.50978088 C-126.57261375 186.54924237 -124.50720663 184.69810911 -122.3614502 182.85450745 C-117.11783211 178.29832526 -112.22495684 173.3968179 -107.3046875 168.49755859 C-106.25263094 167.45342244 -105.20040019 166.40946177 -104.14801025 165.36566162 C-100.71998598 161.96362059 -97.29719331 158.55634252 -93.875 155.1484375 C-92.68894905 153.96775488 -91.50289352 152.78707686 -90.3168335 151.60640335 C-85.3800651 146.69122361 -80.44472519 141.77461687 -75.51309204 136.85428429 C-68.48268301 129.84010125 -61.44392955 122.83453966 -54.3931942 115.84078729 C-49.41425733 110.90070435 -44.44508636 105.95092916 -39.48290443 100.99401724 C-36.52890073 98.0436441 -33.57097272 95.09749234 -30.60247803 92.16169357 C-27.80713208 89.39670404 -25.02423122 86.61974214 -22.2498703 83.83370209 C-21.23846344 82.82207682 -20.2228816 81.81460273 -19.20252228 80.8120079 C-4.65056674 66.49942489 4.64918585 48.95092896 5.3125 28.25 C5.14899602 18.60326517 2.71223362 9.20980198 0 0 Z " fill="#3665D2" transform="translate(450,128)"/>
<path d="M0 0 C0.33 0 0.66 0 1 0 C1 5.61 1 11.22 1 17 C-4.61 17 -10.22 17 -16 17 C-15.01 16.34 -14.02 15.68 -13 15 C-6.87133536 10.82193704 -2.41414473 7.24243418 0 0 Z " fill="#000000" transform="translate(511,495)"/>
<path d="M0 0 C0.99 1.485 0.99 1.485 2 3 C5.48059168 8.1055667 8.54922037 11.85066066 14 15 C14.99 15.66 15.98 16.32 17 17 C11.39 17 5.78 17 0 17 C0 11.39 0 5.78 0 0 Z " fill="#000000" transform="translate(0,495)"/>
<path d="M0 0 C5.61 0 11.22 0 17 0 C17 5.61 17 11.22 17 17 C16.34 16.01 15.68 15.02 15 14 C11.51940832 8.8944333 8.45077963 5.14933934 3 2 C2.01 1.34 1.02 0.68 0 0 Z " fill="#000000" transform="translate(495,0)"/>
<path d="M0 0 C5.61 0 11.22 0 17 0 C16.01 0.66 15.02 1.32 14 2 C8.8944333 5.48059168 5.14933934 8.54922037 2 14 C1.34 14.99 0.68 15.98 0 17 C0 11.39 0 5.78 0 0 Z " fill="#000000" transform="translate(0,0)"/>
</svg>
